<svg width="17" height="18" viewBox="0 0 17 18" fill="none" xmlns="http://www.w3.org/2000/svg">
<path d="M8.49028 0.636721C6.80951 0.638643 5.16704 1.13824 3.77048 2.07234C2.37393 3.00645 1.28597 4.33312 0.644144 5.88469C0.00231959 7.43626 -0.164562 9.14305 0.164589 10.7893C0.49374 12.4356 1.30415 13.9475 2.49338 15.1338C3.68261 16.3202 5.19727 17.1277 6.8459 17.4544C8.49454 17.7811 10.2031 17.6123 11.7557 16.9692C13.3083 16.3262 14.6352 15.2379 15.5686 13.8418C16.5021 12.4457 17.0002 10.8046 17 9.12576C16.9994 8.01025 16.7787 6.90576 16.3507 5.87541C15.9227 4.84506 15.2957 3.90903 14.5055 3.12073C13.7153 2.33244 12.7773 1.70736 11.7452 1.28115C10.7131 0.854938 9.6071 0.635955 8.49028 0.636721ZM8.80653 12.339L4.11814 7.41221H13.4959L8.80653 12.339Z" fill="#030303"/>
</svg>
