<svg width="15" height="16" viewBox="0 0 15 16" fill="none" xmlns="http://www.w3.org/2000/svg">
<path d="M13.585 1.85122H12.0982V1.13389C12.0982 1.00177 12.045 0.875073 11.9502 0.781653C11.8555 0.688232 11.7269 0.635742 11.5929 0.635742C11.4589 0.635742 11.3303 0.688232 11.2356 0.781653C11.1408 0.875073 11.0875 1.00177 11.0875 1.13389V1.84723H3.91146V1.13389C3.91146 1.00177 3.85822 0.875073 3.76345 0.781653C3.66868 0.688232 3.54014 0.635742 3.40611 0.635742C3.27208 0.635742 3.14354 0.688232 3.04877 0.781653C2.954 0.875073 2.90075 1.00177 2.90075 1.13389V1.84723H1.415C1.04059 1.84723 0.681447 1.99351 0.416228 2.25401C0.151009 2.51451 0.00133717 2.86802 0 3.23708V4.4874H14.996V3.23708C14.9936 2.8694 14.844 2.51752 14.5798 2.258C14.3155 1.99847 13.958 1.85226 13.585 1.85122Z" fill="#030303"/>
<path d="M0 14.2283C0.00133717 14.5974 0.151009 14.9509 0.416228 15.2114C0.681447 15.4719 1.04059 15.6182 1.415 15.6182H13.585C13.9594 15.6182 14.3186 15.4719 14.5838 15.2114C14.849 14.9509 14.9987 14.5974 15 14.2283V5.56055H0V14.2283ZM7.075 12.4898C7.11993 12.0208 7.26002 11.5656 7.48695 11.1511C7.71388 10.7365 8.02302 10.3712 8.396 10.0767C9.09541 9.35344 9.27835 9.12927 9.27835 8.56537C9.27835 8.13696 9.16616 7.80221 8.67192 7.80221C8.17769 7.80221 8.02709 8.15888 8.00384 8.72876H7.11138C7.08791 8.51572 7.11245 8.30021 7.18324 8.09759C7.25404 7.89498 7.36934 7.71027 7.52092 7.55667C7.6725 7.40306 7.85662 7.28435 8.06013 7.20899C8.26364 7.13363 8.48151 7.10349 8.6982 7.12073C8.90216 7.09265 9.10993 7.11097 9.30559 7.17427C9.50126 7.23757 9.67963 7.3442 9.82704 7.48595C9.97446 7.6277 10.087 7.80081 10.156 7.99206C10.2251 8.18331 10.2488 8.38759 10.2254 8.58927C10.2254 9.25778 10.0232 9.61249 9.26016 10.3487C8.78529 10.7521 8.40375 11.2512 8.1413 11.8123H10.382L10.2567 12.5406H7.075V12.4898ZM4.67657 7.59498C5.047 7.54379 5.39635 7.39434 5.68728 7.16259H6.30281V12.5426H5.38104V8.15889C5.14897 8.21217 4.91179 8.24089 4.67354 8.24457L4.67657 7.59498Z" fill="#030303"/>
</svg>
