<svg width="15" height="12" viewBox="0 0 15 12" fill="none" xmlns="http://www.w3.org/2000/svg">
<path d="M14.443 0.479493H0.554862C0.481958 0.479336 0.409744 0.495589 0.342363 0.527367C0.274982 0.559145 0.213762 0.6058 0.162211 0.664653C0.11066 0.723506 0.0697941 0.793421 0.0419587 0.870346C0.0141232 0.947272 -0.000136697 1.02972 9.87603e-07 1.11295V10.8331C-0.000136697 10.9163 0.0141232 10.9987 0.0419587 11.0757C0.0697941 11.1526 0.11066 11.2225 0.162211 11.2813C0.213762 11.3402 0.274982 11.3868 0.342363 11.4186C0.409744 11.4504 0.481958 11.4667 0.554862 11.4665H14.443C14.516 11.4667 14.5884 11.4504 14.6559 11.4187C14.7234 11.3869 14.7847 11.3403 14.8364 11.2815C14.8882 11.2226 14.9292 11.1528 14.9573 11.0758C14.9853 10.9989 14.9999 10.9164 15 10.8331V1.11295C14.9999 1.02961 14.9853 0.947104 14.9573 0.870164C14.9292 0.793225 14.8882 0.72333 14.8364 0.664508C14.7847 0.605686 14.7234 0.55908 14.6559 0.527331C14.5884 0.495581 14.516 0.479337 14.443 0.479493ZM13.6688 3.36163L7.83908 7.2101H7.37931L1.55173 3.36284C1.48634 3.31944 1.42908 3.26177 1.38322 3.19311C1.33735 3.12445 1.30378 3.04617 1.28443 2.9627C1.26507 2.87923 1.2603 2.79219 1.2704 2.70662C1.28049 2.62105 1.30525 2.53859 1.34326 2.46394C1.38127 2.38929 1.43179 2.32393 1.49193 2.27157C1.55207 2.21921 1.62065 2.18089 1.69377 2.15879C1.76688 2.13669 1.84309 2.13124 1.91804 2.14277C1.993 2.15429 2.06523 2.18256 2.13062 2.22595L7.60815 5.84298L13.0857 2.22595C13.1511 2.18256 13.2233 2.15429 13.2983 2.14277C13.3732 2.13124 13.4494 2.13669 13.5225 2.15879C13.5956 2.18089 13.6642 2.21921 13.7244 2.27157C13.7845 2.32393 13.835 2.38929 13.873 2.46394C13.9111 2.53859 13.9358 2.62105 13.9459 2.70662C13.956 2.79219 13.9512 2.87923 13.9319 2.9627C13.9125 3.04617 13.8789 3.12445 13.8331 3.19311C13.7872 3.26177 13.73 3.31944 13.6646 3.36284L13.6688 3.36163Z" fill="#030303"/>
</svg>
