<svg width="86" height="42" viewBox="0 0 86 42" fill="none" xmlns="http://www.w3.org/2000/svg">
<path d="M0 41.9701L42.534 0.894531L85.068 41.9701H0ZM71.232 41.3518H83.241L77.241 35.5697L71.232 41.3518ZM57.352 41.3518H69.361L63.361 35.5697L57.352 41.3518ZM43.47 41.3518H55.481L49.474 35.5697L43.47 41.3518ZM29.564 41.3518H41.624L35.594 35.5697L29.564 41.3518ZM15.614 41.3518H27.624L21.624 35.5697L15.614 41.3518ZM1.814 41.3518H13.924L7.924 35.5717L1.814 41.3518ZM36.198 34.9834L42.483 41.1541L48.822 35.0363L42.487 28.9035L36.198 34.9834ZM64.348 34.5968C64.2567 34.6756 64.1969 34.7847 64.1798 34.9041C64.1628 35.0234 64.1894 35.1449 64.255 35.2461V35.3739L64.346 35.4229L68.989 39.9845L70.354 41.1381L76.678 35.0353L70.487 29.0713H70.124L64.348 34.5968ZM22.314 34.9854L28.651 41.1012L34.986 34.9854L28.651 28.8516L22.314 34.9854ZM50.073 34.9854L56.507 41.0992L62.842 34.9854L56.507 28.8536L50.073 34.9854ZM8.434 34.9854L14.767 41.0992L15.212 40.6797L20.645 35.4398C20.7164 35.3856 20.7742 35.3157 20.8141 35.2355C20.854 35.1553 20.8748 35.0669 20.875 34.9774C20.8734 34.8817 20.8493 34.7877 20.8047 34.703C20.7601 34.6184 20.6961 34.5454 20.618 34.4899C19.542 33.4761 18.465 32.4264 17.385 31.3776L15.771 29.8154L14.771 28.8516L8.434 34.9854ZM15.374 28.2843L21.806 34.4859L22.001 34.1424L27.657 28.6718C27.7403 28.596 27.7956 28.4942 27.8137 28.3831C27.8319 28.2719 27.8119 28.1579 27.757 28.0595V27.9297L27.657 27.8438L22.157 22.59C22.0658 22.4959 21.9626 22.4143 21.85 22.3473L21.65 22.2264L15.374 28.2843ZM43.734 27.9287C43.6772 27.9721 43.6297 28.0265 43.5943 28.0886C43.5589 28.1507 43.5364 28.2193 43.528 28.2902C43.5269 28.3734 43.5432 28.4558 43.5757 28.5324C43.6082 28.6089 43.6563 28.6778 43.717 28.7347L48.934 33.8057C49.068 33.9516 49.234 34.1104 49.434 34.2852L49.646 34.478L55.977 28.3681L49.239 21.9118V22.6189L43.734 27.9287ZM57.111 28.3282L63.448 34.446L69.783 28.3282L63.448 22.2124L57.111 28.3282ZM29.255 28.3282L35.584 34.438L36.098 33.9795L36.927 33.1885C38.407 31.7782 39.938 30.3208 41.449 28.7936C41.5229 28.7434 41.5837 28.6763 41.6267 28.598C41.6696 28.5197 41.6934 28.4324 41.696 28.3432C41.6982 28.2468 41.6776 28.1513 41.6357 28.0645C41.5938 27.9777 41.5319 27.902 41.455 27.8438C39.732 26.1997 38.082 24.6226 36.455 23.0275L35.587 22.2174L29.255 28.3282ZM22.315 21.5791L28.652 27.6929L34.987 21.5791L28.652 15.4434L22.315 21.5791ZM36.197 21.5791L42.486 27.68L48.821 21.5642L42.532 15.4464L36.197 21.5791ZM50.077 21.5791L56.414 27.678L62.749 21.5602L56.412 15.4614L50.077 21.5791ZM49.283 8.98799C49.2645 9.01736 49.2408 9.04308 49.213 9.06389C47.355 10.8857 45.5 12.6876 43.621 14.4705C43.5379 14.5436 43.4822 14.6428 43.4631 14.7517C43.444 14.8607 43.4627 14.9729 43.516 15.0698V15.1997L43.616 15.2925L49.047 20.5464L49.527 20.9599L55.851 14.8731L49.485 8.66538L49.283 8.98799ZM29.254 14.8631L35.576 20.9639L35.976 20.6392L41.543 15.2696C41.6333 15.1899 41.6928 15.0811 41.7111 14.9621C41.7294 14.8431 41.7053 14.7214 41.643 14.6184V14.4885L41.543 14.4086L35.667 8.76825L29.254 14.8631ZM36.585 7.82634C36.4957 7.91767 36.4443 8.03931 36.4409 8.16691C36.4376 8.29451 36.4826 8.41869 36.567 8.51455L42.486 14.2128L48.823 8.09503L42.702 2.21795H42.338L36.585 7.82634Z" fill="#9D8665"/>
</svg>
