<svg width="13" height="16" viewBox="0 0 13 16" fill="none" xmlns="http://www.w3.org/2000/svg">
<path d="M7.90194 10.0059C7.90194 9.97964 7.91862 9.95822 7.91862 9.93388V8.26053C7.91166 8.2139 7.90157 8.16774 7.88839 8.1223C8.54169 7.74361 9.07998 7.21463 9.45174 6.58605C9.82349 5.95746 10.0163 5.25029 10.0116 4.53221C10.0116 2.33805 8.43875 0.55957 6.5 0.55957C4.56126 0.55957 2.98838 2.33708 2.98838 4.53221C3.00508 5.25289 3.21518 5.95816 3.59943 6.58334C3.98368 7.20853 4.52978 7.73364 5.1877 8.1106C5.17215 8.15967 5.16065 8.20981 5.15331 8.26053V9.93192C5.15604 9.94538 5.15952 9.95872 5.16373 9.97185C2.19307 10.3145 0 11.8214 0 13.3117C0 15.0065 2.90916 15.5419 6.5 15.5419C10.0908 15.5419 13 15.0065 13 13.3117C12.999 11.8594 10.7955 10.3943 7.90194 10.0059Z" fill="#030303"/>
</svg>
