<svg width="14" height="24" viewBox="0 0 14 24" fill="none" xmlns="http://www.w3.org/2000/svg">
<path d="M12.3738 0.411133H1.62824C1.19674 0.412194 0.783231 0.578495 0.478113 0.873685C0.172995 1.16887 0.00109658 1.56893 0 1.98639V21.8088C0.00109658 22.2263 0.172995 22.6264 0.478113 22.9215C0.783231 23.2167 1.19674 23.383 1.62824 23.3841H12.3738C12.8051 23.383 13.2184 23.2166 13.5232 22.9214C13.828 22.6261 13.9995 22.2261 14 21.8088V1.98639C13.9995 1.56912 13.828 1.16905 13.5232 0.873808C13.2184 0.578561 12.8051 0.412196 12.3738 0.411133ZM3.94496 21.5707H2.19003C2.0347 21.5707 1.88573 21.511 1.7759 21.4048C1.66606 21.2985 1.60436 21.1544 1.60436 21.0041C1.60436 20.8538 1.66606 20.7097 1.7759 20.6034C1.88573 20.4972 2.0347 20.4375 2.19003 20.4375H3.94496C4.10029 20.4375 4.24926 20.4972 4.35909 20.6034C4.46893 20.7097 4.53063 20.8538 4.53063 21.0041C4.53063 21.1544 4.46893 21.2985 4.35909 21.4048C4.24926 21.511 4.10029 21.5707 3.94496 21.5707ZM3.94496 19.4118H2.19003C2.03497 19.4118 1.88627 19.3522 1.77663 19.2461C1.66699 19.14 1.6054 18.9962 1.6054 18.8462C1.6054 18.6962 1.66699 18.5523 1.77663 18.4462C1.88627 18.3401 2.03497 18.2805 2.19003 18.2805H3.94496C4.10002 18.2805 4.24872 18.3401 4.35836 18.4462C4.468 18.5523 4.5296 18.6962 4.5296 18.8462C4.5296 18.9962 4.468 19.14 4.35836 19.2461C4.24872 19.3522 4.10002 19.4118 3.94496 19.4118ZM3.94496 17.2548H2.19003C2.0347 17.2548 1.88573 17.1951 1.7759 17.0889C1.66606 16.9826 1.60436 16.8385 1.60436 16.6882C1.60436 16.5379 1.66606 16.3938 1.7759 16.2876C1.88573 16.1813 2.0347 16.1216 2.19003 16.1216H3.94496C4.10029 16.1216 4.24926 16.1813 4.35909 16.2876C4.46893 16.3938 4.53063 16.5379 4.53063 16.6882C4.53063 16.8385 4.46893 16.9826 4.35909 17.0889C4.24926 17.1951 4.10029 17.2548 3.94496 17.2548ZM3.94496 15.0959H2.19003C2.0347 15.0959 1.88573 15.0362 1.7759 14.9299C1.66606 14.8236 1.60436 14.6795 1.60436 14.5293C1.60436 14.379 1.66606 14.2348 1.7759 14.1286C1.88573 14.0223 2.0347 13.9626 2.19003 13.9626H3.94496C4.10029 13.9626 4.24926 14.0223 4.35909 14.1286C4.46893 14.2348 4.53063 14.379 4.53063 14.5293C4.53063 14.6795 4.46893 14.8236 4.35909 14.9299C4.24926 15.0362 4.10029 15.0959 3.94496 15.0959ZM7.87747 21.5717H6.12461C5.96928 21.5717 5.82031 21.512 5.71048 21.4058C5.60065 21.2995 5.53894 21.1554 5.53894 21.0051C5.53894 20.8548 5.60065 20.7107 5.71048 20.6045C5.82031 20.4982 5.96928 20.4385 6.12461 20.4385H7.87747C8.03279 20.4385 8.18176 20.4982 8.2916 20.6045C8.40143 20.7107 8.46313 20.8548 8.46313 21.0051C8.46313 21.1554 8.40143 21.2995 8.2916 21.4058C8.18176 21.512 8.03279 21.5717 7.87747 21.5717ZM7.87747 19.4128H6.12461C6.04784 19.4128 5.97181 19.3981 5.90088 19.3697C5.82995 19.3413 5.7655 19.2996 5.71121 19.2471C5.65692 19.1946 5.61386 19.1322 5.58448 19.0636C5.5551 18.995 5.53998 18.9214 5.53998 18.8471C5.53998 18.7729 5.5551 18.6993 5.58448 18.6307C5.61386 18.5621 5.65692 18.4997 5.71121 18.4472C5.7655 18.3947 5.82995 18.353 5.90088 18.3246C5.97181 18.2962 6.04784 18.2816 6.12461 18.2816H7.87747C7.95424 18.2816 8.03026 18.2962 8.10119 18.3246C8.17212 18.353 8.23658 18.3947 8.29086 18.4472C8.34515 18.4997 8.38822 18.5621 8.4176 18.6307C8.44698 18.6993 8.4621 18.7729 8.4621 18.8471C8.4621 18.9214 8.44698 18.995 8.4176 19.0636C8.38822 19.1322 8.34515 19.1946 8.29086 19.2471C8.23658 19.2996 8.17212 19.3413 8.10119 19.3697C8.03026 19.3981 7.95424 19.4128 7.87747 19.4128ZM7.87747 17.2558H6.12461C5.96928 17.2558 5.82031 17.1961 5.71048 17.0899C5.60065 16.9836 5.53894 16.8395 5.53894 16.6892C5.53894 16.5389 5.60065 16.3948 5.71048 16.2886C5.82031 16.1823 5.96928 16.1226 6.12461 16.1226H7.87747C8.03279 16.1226 8.18176 16.1823 8.2916 16.2886C8.40143 16.3948 8.46313 16.5389 8.46313 16.6892C8.46313 16.8395 8.40143 16.9836 8.2916 17.0899C8.18176 17.1961 8.03279 17.2558 7.87747 17.2558ZM7.87747 15.0968H6.12461C6.0477 15.0968 5.97154 15.0822 5.90048 15.0537C5.82943 15.0253 5.76486 14.9835 5.71048 14.9309C5.6561 14.8783 5.61295 14.8158 5.58352 14.7471C5.55409 14.6783 5.53894 14.6046 5.53894 14.5302C5.53894 14.4558 5.55409 14.3822 5.58352 14.3134C5.61295 14.2447 5.6561 14.1822 5.71048 14.1296C5.76486 14.077 5.82943 14.0352 5.90048 14.0068C5.97154 13.9783 6.0477 13.9636 6.12461 13.9636H7.87747C7.95438 13.9636 8.03053 13.9783 8.10159 14.0068C8.17265 14.0352 8.23721 14.077 8.2916 14.1296C8.34598 14.1822 8.38912 14.2447 8.41856 14.3134C8.44799 14.3822 8.46313 14.4558 8.46313 14.5302C8.46313 14.6046 8.44799 14.6783 8.41856 14.7471C8.38912 14.8158 8.34598 14.8783 8.2916 14.9309C8.23721 14.9835 8.17265 15.0253 8.10159 15.0537C8.03053 15.0822 7.95438 15.0968 7.87747 15.0968ZM11.81 21.5727H10.055C9.89971 21.5727 9.75074 21.513 9.64091 21.4068C9.53107 21.3005 9.46937 21.1564 9.46937 21.0061C9.46937 20.8558 9.53107 20.7117 9.64091 20.6055C9.75074 20.4992 9.89971 20.4395 10.055 20.4395H11.81C11.9653 20.4395 12.1143 20.4992 12.2241 20.6055C12.3339 20.7117 12.3956 20.8558 12.3956 21.0061C12.3956 21.1564 12.3339 21.3005 12.2241 21.4068C12.1143 21.513 11.9653 21.5727 11.81 21.5727ZM11.81 19.4138H10.055C9.89998 19.4138 9.75128 19.3542 9.64164 19.2481C9.532 19.142 9.47041 18.9982 9.47041 18.8482C9.47041 18.6982 9.532 18.5543 9.64164 18.4482C9.75128 18.3421 9.89998 18.2826 10.055 18.2826H11.81C11.965 18.2826 12.1137 18.3421 12.2234 18.4482C12.333 18.5543 12.3946 18.6982 12.3946 18.8482C12.3946 18.9982 12.333 19.142 12.2234 19.2481C12.1137 19.3542 11.965 19.4138 11.81 19.4138ZM11.81 17.2568H10.055C9.97813 17.2568 9.90197 17.2422 9.83091 17.2137C9.75985 17.1852 9.69529 17.1435 9.64091 17.0909C9.58652 17.0383 9.54338 16.9758 9.51395 16.907C9.48452 16.8383 9.46937 16.7646 9.46937 16.6902C9.46937 16.6158 9.48452 16.5421 9.51395 16.4734C9.54338 16.4046 9.58652 16.3422 9.64091 16.2895C9.69529 16.2369 9.75985 16.1952 9.83091 16.1667C9.90197 16.1382 9.97813 16.1236 10.055 16.1236H11.81C11.8869 16.1236 11.963 16.1382 12.0341 16.1667C12.1052 16.1952 12.1697 16.2369 12.2241 16.2895C12.2785 16.3422 12.3216 16.4046 12.3511 16.4734C12.3805 16.5421 12.3956 16.6158 12.3956 16.6902C12.3956 16.7646 12.3805 16.8383 12.3511 16.907C12.3216 16.9758 12.2785 17.0383 12.2241 17.0909C12.1697 17.1435 12.1052 17.1852 12.0341 17.2137C11.963 17.2422 11.8869 17.2568 11.81 17.2568ZM11.81 15.0979H10.055C9.89971 15.0979 9.75074 15.0382 9.64091 14.9319C9.53107 14.8256 9.46937 14.6815 9.46937 14.5313C9.46937 14.381 9.53107 14.2369 9.64091 14.1306C9.75074 14.0243 9.89971 13.9646 10.055 13.9646H11.81C11.9653 13.9646 12.1143 14.0243 12.2241 14.1306C12.3339 14.2369 12.3956 14.381 12.3956 14.5313C12.3956 14.6815 12.3339 14.8256 12.2241 14.9319C12.1143 15.0382 11.9653 15.0979 11.81 15.0979ZM12.433 12.6586H1.56905V2.26067H12.4299L12.433 12.6586Z" fill="#030303"/>
</svg>
