<svg width="15" height="15" viewBox="0 0 15 15" fill="none" xmlns="http://www.w3.org/2000/svg">
<path fill-rule="evenodd" clip-rule="evenodd" d="M8.33333 5.41764H12.5V3.75098H8.33333V5.41764ZM8.33333 11.251H12.5V9.58431H8.33333V11.251ZM13.3333 15.001H1.66667C0.75 15.001 0 14.251 0 13.3343V1.66764C0 0.750977 0.75 0.000976562 1.66667 0.000976562H13.3333C14.25 0.000976562 15 0.750977 15 1.66764V13.3343C15 14.251 14.25 15.001 13.3333 15.001ZM2.5 6.66764H6.66667V2.50098H2.5V6.66764ZM3.33333 3.33431H5.83333V5.83431H3.33333V3.33431ZM2.5 12.501H6.66667V8.33431H2.5V12.501ZM3.33333 9.16764H5.83333V11.6676H3.33333V9.16764Z" fill="#030303"/>
</svg>
